<svg width="32" height="32" viewBox="0 0 32 32" fill="none" xmlns="http://www.w3.org/2000/svg">
<path d="M31.1771 15.3574C30.9913 15.7637 30.9913 16.2353 31.1772 16.6416C33.1504 20.9555 31.4689 24.8031 27.245 26.2791C26.7943 26.4366 26.4367 26.7943 26.2792 27.2449C24.8032 31.4689 20.9562 33.1504 16.6416 31.177C16.2353 30.9912 15.7638 30.9912 15.3575 31.177C11.043 33.1504 7.19534 31.469 5.71987 27.2451C5.56241 26.7943 5.20475 26.4366 4.75401 26.2791C0.530133 24.8031 -1.15131 20.9561 0.82204 16.6415C1.00785 16.2353 1.00785 15.7638 0.822043 15.3575C-1.15128 11.0429 0.53009 7.19536 4.75385 5.71986C5.20468 5.56237 5.56243 5.20462 5.71992 4.75379C7.19541 0.530046 11.043 -1.15133 15.3575 0.821957C15.7638 1.00778 16.2353 1.00776 16.6416 0.821919C20.9555 -1.15133 24.8031 0.530115 26.2792 4.75395C26.4367 5.20469 26.7944 5.56235 27.2452 5.71981C31.469 7.19528 33.1504 11.0429 31.1771 15.3574Z" fill="#0856CF"/>
</svg>
