<svg width="120" height="120" viewBox="0 0 120 120" fill="none" xmlns="http://www.w3.org/2000/svg">
<path d="M116.915 57.5918C116.219 59.1154 116.219 60.8837 116.916 62.4073C124.315 78.5844 118.01 93.0128 102.17 98.548C100.48 99.1385 99.139 100.48 98.5484 102.17C93.0134 118.009 78.5871 124.315 62.4076 116.915C60.8841 116.218 59.1159 116.218 57.5924 116.915C41.4129 124.315 26.9844 118.01 21.4514 102.17C20.8609 100.48 19.5197 99.1385 17.8294 98.5478C1.99001 93.0127 -4.31535 78.5865 3.08466 62.4072C3.78146 60.8837 3.78146 59.1155 3.08467 57.592C-4.31526 41.4126 1.98985 26.9842 17.8288 21.4511C19.5194 20.8606 20.861 19.519 21.4516 17.8284C26.9846 1.98949 41.4129 -4.31563 57.5922 3.08415C59.1158 3.78098 60.8842 3.78091 62.4077 3.084C78.5847 -4.31564 93.0129 1.98975 98.5482 17.829C99.1389 19.5193 100.48 20.8605 102.171 21.451C118.01 26.9839 124.315 41.4123 116.915 57.5918Z" fill="#0856CF"/>
</svg>
