<svg xmlns="http://www.w3.org/2000/svg" version="1.1" xmlns:xlink="http://www.w3.org/1999/xlink" width="1000" height="1000"><style>
    #light-icon {
      display: inline;
    }
    #dark-icon {
      display: none;
    }

    @media (prefers-color-scheme: dark) {
      #light-icon {
        display: none;
      }
      #dark-icon {
        display: inline;
      }
    }
  </style><g id="light-icon"><svg xmlns="http://www.w3.org/2000/svg" version="1.1" xmlns:xlink="http://www.w3.org/1999/xlink" width="1000" height="1000"><g><g transform="matrix(8.771929824561404,0,0,8.771929824561404,-5.684341886080802e-14,-5.684341886080802e-14)"><svg xmlns="http://www.w3.org/2000/svg" width="114" height="114" viewBox="0 0 114 114" fill="none"><g clip-path="url(#clip0_2192_4178)">
<path d="M29.7941 29.7942C42.8655 38.1148 49.4012 42.2751 56.6056 41.9971C56.713 41.9929 56.8203 41.988 56.9276 41.9824C64.1274 41.6038 70.2575 36.8662 82.5177 27.391L100.53 13.4707L86.6092 31.4825C77.134 43.7428 72.3964 49.8729 72.0179 57.0727C72.0122 57.18 72.0073 57.2873 72.0032 57.3946C71.7252 64.599 75.8855 71.1347 84.206 84.2061C71.1346 75.8856 64.5989 71.7253 57.3946 72.0033C57.2872 72.0074 57.1799 72.0123 57.0726 72.018C49.8728 72.3965 43.7427 77.1341 31.4825 86.6093L13.4706 100.53L27.3909 82.5178C36.8661 70.2576 41.6037 64.1275 41.9823 56.9277C41.9879 56.8204 41.9928 56.7131 41.997 56.6057C42.275 49.4013 38.1147 42.8656 29.7941 29.7942Z" fill="black"></path>
</g><defs>
<clipPath id="clip0_2192_4178">
<rect width="114" height="114" fill="white"></rect>
</clipPath>
</defs></svg></g></g></svg></g><g id="dark-icon"><svg xmlns="http://www.w3.org/2000/svg" version="1.1" xmlns:xlink="http://www.w3.org/1999/xlink" width="1000" height="1000"><g><g transform="matrix(8.771929824561404,0,0,8.771929824561404,-5.684341886080802e-14,-5.684341886080802e-14)"><svg xmlns="http://www.w3.org/2000/svg" width="114" height="114" viewBox="0 0 114 114" fill="none"><g clip-path="url(#clip0_2194_4179)">
<path d="M29.7941 29.7942C42.8655 38.1148 49.4012 42.2751 56.6056 41.9971C56.713 41.9929 56.8203 41.988 56.9276 41.9824C64.1274 41.6038 70.2575 36.8662 82.5177 27.391L100.53 13.4707L86.6092 31.4825C77.134 43.7428 72.3964 49.8729 72.0179 57.0727C72.0122 57.18 72.0073 57.2873 72.0032 57.3946C71.7252 64.599 75.8855 71.1347 84.206 84.2061C71.1346 75.8856 64.5989 71.7253 57.3946 72.0033C57.2872 72.0074 57.1799 72.0123 57.0726 72.018C49.8728 72.3965 43.7427 77.1341 31.4825 86.6093L13.4706 100.53L27.3909 82.5178C36.8661 70.2576 41.6037 64.1275 41.9823 56.9277C41.9879 56.8204 41.9928 56.7131 41.997 56.6057C42.275 49.4013 38.1147 42.8656 29.7941 29.7942Z" fill="white"></path>
</g><defs>
<clipPath id="clip0_2194_4179">
<rect width="114" height="114" fill="white"></rect>
</clipPath>
</defs></svg></g></g></svg></g></svg>